<svg width="173" height="23" viewBox="0 0 173 23" fill="none" xmlns="http://www.w3.org/2000/svg">
<path d="M14.2188 10.2695L11.4844 13.0176C11.3477 12.6348 11.1608 12.293 10.9238 11.9922C10.6868 11.6823 10.418 11.4225 10.1172 11.2129C9.82552 11.0033 9.50651 10.8438 9.16016 10.7344C8.8138 10.625 8.45833 10.5703 8.09375 10.5703C7.58333 10.5703 7.10026 10.6751 6.64453 10.8848C6.19792 11.0944 5.80599 11.3906 5.46875 11.7734C5.14062 12.1471 4.88086 12.5938 4.68945 13.1133C4.49805 13.6328 4.40234 14.207 4.40234 14.8359C4.40234 15.3464 4.49805 15.8249 4.68945 16.2715C4.88086 16.7181 5.14062 17.11 5.46875 17.4473C5.80599 17.7845 6.19792 18.0488 6.64453 18.2402C7.10026 18.4316 7.58333 18.5273 8.09375 18.5273C8.45833 18.5273 8.80924 18.4772 9.14648 18.377C9.48372 18.2767 9.79818 18.1354 10.0898 17.9531C10.3906 17.7617 10.6549 17.5339 10.8828 17.2695C11.1198 16.9961 11.3112 16.6953 11.457 16.3672L14.1914 19.1152C13.8451 19.6074 13.444 20.0495 12.9883 20.4414C12.5417 20.8333 12.054 21.166 11.5254 21.4395C11.0059 21.7129 10.4544 21.918 9.87109 22.0547C9.29688 22.2005 8.70443 22.2734 8.09375 22.2734C7.0638 22.2734 6.0931 22.082 5.18164 21.6992C4.2793 21.3073 3.48633 20.7741 2.80273 20.0996C2.12826 19.4251 1.59505 18.6367 1.20312 17.7344C0.811198 16.832 0.615234 15.8659 0.615234 14.8359C0.615234 13.7148 0.811198 12.6667 1.20312 11.6914C1.59505 10.7161 2.12826 9.86849 2.80273 9.14844C3.48633 8.41927 4.2793 7.84505 5.18164 7.42578C6.0931 7.00651 7.0638 6.79688 8.09375 6.79688C8.70443 6.79688 9.30143 6.87435 9.88477 7.0293C10.4772 7.18424 11.0378 7.41211 11.5664 7.71289C12.1042 8.00456 12.5964 8.36458 13.043 8.79297C13.4987 9.22135 13.8906 9.71354 14.2188 10.2695ZM29.9824 14.5488C29.9824 15.6426 29.7865 16.6634 29.3945 17.6113C29.0026 18.5501 28.4694 19.3659 27.7949 20.0586C27.1204 20.7422 26.3275 21.2845 25.416 21.6855C24.5137 22.0775 23.543 22.2734 22.5039 22.2734C21.474 22.2734 20.5033 22.0775 19.5918 21.6855C18.6895 21.2845 17.8965 20.7422 17.2129 20.0586C16.5384 19.3659 16.0052 18.5501 15.6133 17.6113C15.2214 16.6634 15.0254 15.6426 15.0254 14.5488C15.0254 13.4368 15.2214 12.4069 15.6133 11.459C16.0052 10.5111 16.5384 9.69531 17.2129 9.01172C17.8965 8.31901 18.6895 7.77669 19.5918 7.38477C20.5033 6.99284 21.474 6.79688 22.5039 6.79688C23.543 6.79688 24.5137 6.98372 25.416 7.35742C26.3275 7.72201 27.1204 8.24609 27.7949 8.92969C28.4694 9.60417 29.0026 10.4199 29.3945 11.377C29.7865 12.3249 29.9824 13.3822 29.9824 14.5488ZM26.2227 14.5488C26.2227 13.9473 26.1224 13.4049 25.9219 12.9219C25.7305 12.4297 25.4661 12.0104 25.1289 11.6641C24.7917 11.3086 24.3952 11.0397 23.9395 10.8574C23.4928 10.666 23.0143 10.5703 22.5039 10.5703C21.9935 10.5703 21.5104 10.666 21.0547 10.8574C20.6081 11.0397 20.2161 11.3086 19.8789 11.6641C19.5508 12.0104 19.291 12.4297 19.0996 12.9219C18.9082 13.4049 18.8125 13.9473 18.8125 14.5488C18.8125 15.1139 18.9082 15.638 19.0996 16.1211C19.291 16.6042 19.5508 17.0234 19.8789 17.3789C20.2161 17.7344 20.6081 18.0169 21.0547 18.2266C21.5104 18.4271 21.9935 18.5273 22.5039 18.5273C23.0143 18.5273 23.4928 18.4316 23.9395 18.2402C24.3952 18.0488 24.7917 17.7799 25.1289 17.4336C25.4661 17.0872 25.7305 16.668 25.9219 16.1758C26.1224 15.6836 26.2227 15.1413 26.2227 14.5488ZM35.7656 22L30.1875 7.35742H34.4395L37.6387 16.4902L40.8242 7.35742H45.0898L39.5117 22H35.7656ZM50.9141 3.37891C50.9141 3.72526 50.8457 4.04883 50.709 4.34961C50.5814 4.65039 50.4036 4.91471 50.1758 5.14258C49.9479 5.36133 49.679 5.53906 49.3691 5.67578C49.0684 5.80339 48.7448 5.86719 48.3984 5.86719C48.0521 5.86719 47.724 5.80339 47.4141 5.67578C47.1133 5.53906 46.849 5.36133 46.6211 5.14258C46.4023 4.91471 46.2246 4.65039 46.0879 4.34961C45.9603 4.04883 45.8965 3.72526 45.8965 3.37891C45.8965 3.04167 45.9603 2.72266 46.0879 2.42188C46.2246 2.11198 46.4023 1.84766 46.6211 1.62891C46.849 1.40104 47.1133 1.22331 47.4141 1.0957C47.724 0.958984 48.0521 0.890625 48.3984 0.890625C48.7448 0.890625 49.0684 0.958984 49.3691 1.0957C49.679 1.22331 49.9479 1.40104 50.1758 1.62891C50.4036 1.84766 50.5814 2.11198 50.709 2.42188C50.8457 2.72266 50.9141 3.04167 50.9141 3.37891ZM50.2715 22H46.5117V7.35742H50.2715V22ZM67.2793 22H66.377L64.9277 19.9902C64.5723 20.3092 64.194 20.61 63.793 20.8926C63.401 21.166 62.9863 21.4076 62.5488 21.6172C62.1113 21.8177 61.6602 21.9772 61.1953 22.0957C60.7396 22.2142 60.2747 22.2734 59.8008 22.2734C58.7708 22.2734 57.8001 22.082 56.8887 21.6992C55.9863 21.3073 55.1934 20.7695 54.5098 20.0859C53.8353 19.3932 53.3021 18.5775 52.9102 17.6387C52.5182 16.6908 52.3223 15.6608 52.3223 14.5488C52.3223 13.446 52.5182 12.4206 52.9102 11.4727C53.3021 10.5247 53.8353 9.70443 54.5098 9.01172C55.1934 8.31901 55.9863 7.77669 56.8887 7.38477C57.8001 6.99284 58.7708 6.79688 59.8008 6.79688C60.1289 6.79688 60.4661 6.82422 60.8125 6.87891C61.168 6.93359 61.5098 7.02474 61.8379 7.15234C62.1751 7.27083 62.4896 7.43034 62.7812 7.63086C63.0729 7.83138 63.319 8.07747 63.5195 8.36914V1.5332H67.2793V22ZM63.5195 14.5488C63.5195 14.0384 63.4193 13.5462 63.2188 13.0723C63.0273 12.5892 62.763 12.1654 62.4258 11.8008C62.0885 11.4271 61.6921 11.1309 61.2363 10.9121C60.7897 10.6842 60.3112 10.5703 59.8008 10.5703C59.2904 10.5703 58.8073 10.6615 58.3516 10.8438C57.9049 11.026 57.513 11.2904 57.1758 11.6367C56.8477 11.974 56.5879 12.3887 56.3965 12.8809C56.2051 13.373 56.1094 13.929 56.1094 14.5488C56.1094 15.0866 56.2051 15.597 56.3965 16.0801C56.5879 16.5632 56.8477 16.987 57.1758 17.3516C57.513 17.7161 57.9049 18.0033 58.3516 18.2129C58.8073 18.4225 59.2904 18.5273 59.8008 18.5273C60.3112 18.5273 60.7897 18.418 61.2363 18.1992C61.6921 17.9714 62.0885 17.6751 62.4258 17.3105C62.763 16.9368 63.0273 16.513 63.2188 16.0391C63.4193 15.556 63.5195 15.0592 63.5195 14.5488ZM74.9355 12.7578C74.9355 13.0859 74.8717 13.3958 74.7441 13.6875C74.6257 13.9701 74.4616 14.2161 74.252 14.4258C74.0423 14.6354 73.7962 14.804 73.5137 14.9316C73.2311 15.0501 72.9303 15.1094 72.6113 15.1094C72.2832 15.1094 71.9779 15.0501 71.6953 14.9316C71.4128 14.804 71.1621 14.6354 70.9434 14.4258C70.7337 14.2161 70.5651 13.9701 70.4375 13.6875C70.319 13.3958 70.2598 13.0859 70.2598 12.7578C70.2598 12.4479 70.319 12.1517 70.4375 11.8691C70.5651 11.5866 70.7337 11.3405 70.9434 11.1309C71.1621 10.9121 71.4128 10.7435 71.6953 10.625C71.9779 10.4974 72.2832 10.4336 72.6113 10.4336C72.9303 10.4336 73.2311 10.4974 73.5137 10.625C73.7962 10.7435 74.0423 10.9121 74.252 11.1309C74.4616 11.3405 74.6257 11.5866 74.7441 11.8691C74.8717 12.1517 74.9355 12.4479 74.9355 12.7578ZM74.9355 20.6055C74.9355 20.9336 74.8717 21.2435 74.7441 21.5352C74.6257 21.8177 74.4616 22.0638 74.252 22.2734C74.0423 22.4831 73.7962 22.6471 73.5137 22.7656C73.2311 22.8932 72.9303 22.957 72.6113 22.957C72.2832 22.957 71.9779 22.8932 71.6953 22.7656C71.4128 22.6471 71.1621 22.4831 70.9434 22.2734C70.7337 22.0638 70.5651 21.8177 70.4375 21.5352C70.319 21.2435 70.2598 20.9336 70.2598 20.6055C70.2598 20.2865 70.319 19.9857 70.4375 19.7031C70.5651 19.4206 70.7337 19.1745 70.9434 18.9648C71.1621 18.7552 71.4128 18.5911 71.6953 18.4727C71.9779 18.3451 72.2832 18.2812 72.6113 18.2812C72.9303 18.2812 73.2311 18.3451 73.5137 18.4727C73.7962 18.5911 74.0423 18.7552 74.252 18.9648C74.4616 19.1745 74.6257 19.4206 74.7441 19.7031C74.8717 19.9857 74.9355 20.2865 74.9355 20.6055ZM85.2441 22C84.3418 22 83.4941 21.8314 82.7012 21.4941C81.9082 21.1478 81.2109 20.6784 80.6094 20.0859C80.0169 19.4844 79.5475 18.7871 79.2012 17.9941C78.8639 17.2012 78.6953 16.3535 78.6953 15.4512V11.1035H76.877V7.38477H78.6953V1.5332H82.4141V7.38477H88.0742V11.1035H82.4141V15.4512C82.4141 15.8431 82.487 16.2122 82.6328 16.5586C82.7786 16.8958 82.9792 17.1921 83.2344 17.4473C83.4896 17.7025 83.7904 17.9076 84.1367 18.0625C84.4831 18.2083 84.8522 18.2812 85.2441 18.2812H88.0742V22H85.2441ZM93.9121 22H90.1797V7.35742H91.082L92.3125 9.09375C92.9141 8.54688 93.5977 8.1276 94.3633 7.83594C95.1289 7.53516 95.9219 7.38477 96.7422 7.38477H100.037V11.1035H96.7422C96.3503 11.1035 95.9811 11.1764 95.6348 11.3223C95.2884 11.4681 94.9876 11.6686 94.7324 11.9238C94.4772 12.179 94.2767 12.4798 94.1309 12.8262C93.985 13.1725 93.9121 13.5417 93.9121 13.9336V22ZM115.678 22H114.775L113.326 19.9902C112.971 20.3092 112.592 20.61 112.191 20.8926C111.799 21.166 111.385 21.4076 110.947 21.6172C110.51 21.8177 110.059 21.9772 109.594 22.0957C109.138 22.2142 108.673 22.2734 108.199 22.2734C107.169 22.2734 106.199 22.1003 105.287 21.7539C104.385 21.4076 103.592 20.9062 102.908 20.25C102.234 19.5846 101.701 18.7734 101.309 17.8164C100.917 16.8594 100.721 15.7702 100.721 14.5488C100.721 13.4095 100.917 12.3659 101.309 11.418C101.701 10.4609 102.234 9.64062 102.908 8.95703C103.592 8.27344 104.385 7.74479 105.287 7.37109C106.199 6.98828 107.169 6.79688 108.199 6.79688C108.673 6.79688 109.143 6.85612 109.607 6.97461C110.072 7.0931 110.523 7.25716 110.961 7.4668C111.398 7.67643 111.813 7.92253 112.205 8.20508C112.606 8.48763 112.98 8.79297 113.326 9.12109L114.775 7.38477H115.678V22ZM111.918 14.5488C111.918 14.0384 111.818 13.5462 111.617 13.0723C111.426 12.5892 111.161 12.1654 110.824 11.8008C110.487 11.4271 110.09 11.1309 109.635 10.9121C109.188 10.6842 108.71 10.5703 108.199 10.5703C107.689 10.5703 107.206 10.6569 106.75 10.8301C106.303 11.0033 105.911 11.2585 105.574 11.5957C105.246 11.9329 104.986 12.3522 104.795 12.8535C104.604 13.3457 104.508 13.9108 104.508 14.5488C104.508 15.1868 104.604 15.7565 104.795 16.2578C104.986 16.75 105.246 17.1647 105.574 17.502C105.911 17.8392 106.303 18.0944 106.75 18.2676C107.206 18.4408 107.689 18.5273 108.199 18.5273C108.71 18.5273 109.188 18.418 109.635 18.1992C110.09 17.9714 110.487 17.6751 110.824 17.3105C111.161 16.9368 111.426 16.513 111.617 16.0391C111.818 15.556 111.918 15.0592 111.918 14.5488ZM131.332 10.2695L128.598 13.0176C128.461 12.6348 128.274 12.293 128.037 11.9922C127.8 11.6823 127.531 11.4225 127.23 11.2129C126.939 11.0033 126.62 10.8438 126.273 10.7344C125.927 10.625 125.572 10.5703 125.207 10.5703C124.697 10.5703 124.214 10.6751 123.758 10.8848C123.311 11.0944 122.919 11.3906 122.582 11.7734C122.254 12.1471 121.994 12.5938 121.803 13.1133C121.611 13.6328 121.516 14.207 121.516 14.8359C121.516 15.3464 121.611 15.8249 121.803 16.2715C121.994 16.7181 122.254 17.11 122.582 17.4473C122.919 17.7845 123.311 18.0488 123.758 18.2402C124.214 18.4316 124.697 18.5273 125.207 18.5273C125.572 18.5273 125.923 18.4772 126.26 18.377C126.597 18.2767 126.911 18.1354 127.203 17.9531C127.504 17.7617 127.768 17.5339 127.996 17.2695C128.233 16.9961 128.424 16.6953 128.57 16.3672L131.305 19.1152C130.958 19.6074 130.557 20.0495 130.102 20.4414C129.655 20.8333 129.167 21.166 128.639 21.4395C128.119 21.7129 127.568 21.918 126.984 22.0547C126.41 22.2005 125.818 22.2734 125.207 22.2734C124.177 22.2734 123.206 22.082 122.295 21.6992C121.393 21.3073 120.6 20.7741 119.916 20.0996C119.242 19.4251 118.708 18.6367 118.316 17.7344C117.924 16.832 117.729 15.8659 117.729 14.8359C117.729 13.7148 117.924 12.6667 118.316 11.6914C118.708 10.7161 119.242 9.86849 119.916 9.14844C120.6 8.41927 121.393 7.84505 122.295 7.42578C123.206 7.00651 124.177 6.79688 125.207 6.79688C125.818 6.79688 126.415 6.87435 126.998 7.0293C127.59 7.18424 128.151 7.41211 128.68 7.71289C129.217 8.00456 129.71 8.36458 130.156 8.79297C130.612 9.22135 131.004 9.71354 131.332 10.2695ZM136.924 22H133.164V1.5332H136.924V14.4395L142.488 7.38477H146.781L141.928 13.4824L146.781 22H142.488L139.521 16.6816L136.924 20.127V22ZM153.617 18.418C153.763 18.4635 153.909 18.4954 154.055 18.5137C154.201 18.5228 154.346 18.5273 154.492 18.5273C154.857 18.5273 155.208 18.4772 155.545 18.377C155.882 18.2767 156.197 18.1354 156.488 17.9531C156.789 17.7617 157.053 17.5339 157.281 17.2695C157.518 16.9961 157.71 16.6953 157.855 16.3672L160.59 19.1152C160.243 19.6074 159.842 20.0495 159.387 20.4414C158.94 20.8333 158.452 21.166 157.924 21.4395C157.404 21.7129 156.853 21.918 156.27 22.0547C155.695 22.2005 155.103 22.2734 154.492 22.2734C153.462 22.2734 152.492 22.082 151.58 21.6992C150.678 21.3164 149.885 20.7832 149.201 20.0996C148.527 19.416 147.993 18.6048 147.602 17.666C147.21 16.7181 147.014 15.679 147.014 14.5488C147.014 13.3913 147.21 12.334 147.602 11.377C147.993 10.4199 148.527 9.60417 149.201 8.92969C149.885 8.25521 150.678 7.73112 151.58 7.35742C152.492 6.98372 153.462 6.79688 154.492 6.79688C155.103 6.79688 155.7 6.86979 156.283 7.01562C156.867 7.16146 157.418 7.37109 157.938 7.64453C158.466 7.91797 158.958 8.25521 159.414 8.65625C159.87 9.04818 160.271 9.49023 160.617 9.98242L153.617 18.418ZM155.531 10.7207C155.358 10.6569 155.185 10.6159 155.012 10.5977C154.848 10.5794 154.674 10.5703 154.492 10.5703C153.982 10.5703 153.499 10.666 153.043 10.8574C152.596 11.0397 152.204 11.304 151.867 11.6504C151.539 11.9967 151.279 12.416 151.088 12.9082C150.896 13.3913 150.801 13.9382 150.801 14.5488C150.801 14.6855 150.805 14.8405 150.814 15.0137C150.833 15.1868 150.855 15.3646 150.883 15.5469C150.919 15.7201 150.96 15.8887 151.006 16.0527C151.051 16.2168 151.111 16.3626 151.184 16.4902L155.531 10.7207ZM166.236 22H162.504V7.35742H163.406L164.637 9.09375C165.238 8.54688 165.922 8.1276 166.688 7.83594C167.453 7.53516 168.246 7.38477 169.066 7.38477H172.361V11.1035H169.066C168.674 11.1035 168.305 11.1764 167.959 11.3223C167.613 11.4681 167.312 11.6686 167.057 11.9238C166.801 12.179 166.601 12.4798 166.455 12.8262C166.309 13.1725 166.236 13.5417 166.236 13.9336V22Z" fill="#2364AA"/>
</svg>
